<svg xmlns="http://www.w3.org/2000/svg" xmlns:xlink="http://www.w3.org/1999/xlink" version="1.1" width="256" height="256" viewBox="0 0 256 256" xml:space="preserve">

<defs>
</defs>
<g style="stroke: none; stroke-width: 0; stroke-dasharray: none; stroke-linecap: butt; stroke-linejoin: miter; stroke-miterlimit: 10; fill: none; fill-rule: nonzero; opacity: 1;" transform="translate(1.4065934065934016 1.4065934065934016) scale(2.81 2.81)" >
	<path d="M 18.422 87.896 c -0.416 0 -0.829 -0.13 -1.176 -0.382 c -0.561 -0.408 -0.871 -1.078 -0.818 -1.77 c 0.836 -10.987 2.709 -22.86 9.726 -30.305 C 16.102 53.541 7.608 45.037 0.474 36.641 c -0.45 -0.529 -0.593 -1.253 -0.378 -1.913 c 0.215 -0.66 0.756 -1.162 1.431 -1.325 c 10.708 -2.6 22.579 -4.486 31.825 -0.114 c -1.3 -10.147 4.163 -20.854 9.943 -30.233 c 0.364 -0.591 1.009 -0.951 1.703 -0.951 s 1.338 0.36 1.702 0.951 c 5.782 9.379 11.246 20.085 9.944 30.233 c 9.25 -4.372 21.119 -2.486 31.825 0.114 c 0.675 0.164 1.216 0.665 1.431 1.325 c 0.214 0.66 0.071 1.384 -0.378 1.913 c -7.135 8.396 -15.63 16.899 -25.682 18.799 c 7.018 7.444 8.891 19.317 9.728 30.305 c 0.053 0.691 -0.257 1.361 -0.818 1.77 c -0.563 0.407 -1.295 0.495 -1.937 0.231 c -10.19 -4.19 -20.902 -9.642 -25.815 -18.615 c -4.912 8.975 -15.625 14.425 -25.815 18.615 C 18.938 87.846 18.679 87.896 18.422 87.896 z M 31.163 51.813 c 0.863 0 1.633 0.556 1.902 1.382 c 0.277 0.854 -0.049 1.79 -0.798 2.286 C 24.242 60.793 21.762 71.904 20.7 82.76 c 9.997 -4.365 19.797 -10.157 22.371 -19.433 c 0.24 -0.865 1.029 -1.465 1.927 -1.465 l 0 0 c 0.899 0 1.688 0.6 1.927 1.466 c 2.573 9.274 12.374 15.066 22.37 19.432 c -1.063 -10.856 -3.543 -21.967 -11.567 -27.279 c -0.75 -0.496 -1.076 -1.432 -0.799 -2.286 c 0.278 -0.854 1.099 -1.408 1.989 -1.38 c 9.609 0.408 18.152 -7.113 25.394 -15.271 c -10.655 -2.343 -21.986 -3.419 -29.519 2.571 c -0.705 0.559 -1.694 0.58 -2.421 0.053 c -0.727 -0.528 -1.013 -1.477 -0.697 -2.318 c 3.369 -9.016 -1.155 -19.462 -6.678 -28.869 c -5.521 9.407 -10.046 19.854 -6.676 28.869 c 0.314 0.842 0.029 1.79 -0.698 2.318 c -0.727 0.527 -1.718 0.506 -2.42 -0.053 c -7.533 -5.991 -18.867 -4.917 -29.519 -2.571 c 7.241 8.158 15.779 15.682 25.392 15.271 C 31.105 51.813 31.134 51.813 31.163 51.813 z" style="stroke: none; stroke-width: 1; stroke-dasharray: none; stroke-linecap: butt; stroke-linejoin: miter; stroke-miterlimit: 10; fill: rgb(0,0,0); fill-rule: nonzero; opacity: 1;" transform=" matrix(1 0 0 1 0 0) " stroke-linecap="round" />
	<path d="M 44.997 57.267 c -4.411 0 -8 -3.589 -8 -8 c 0 -4.412 3.589 -8 8 -8 s 8 3.589 8 8 C 52.997 53.679 49.408 57.267 44.997 57.267 z" style="stroke: none; stroke-width: 1; stroke-dasharray: none; stroke-linecap: butt; stroke-linejoin: miter; stroke-miterlimit: 10; fill: rgb(0,0,0); fill-rule: nonzero; opacity: 1;" transform=" matrix(1 0 0 1 0 0) " stroke-linecap="round" />
</g>
</svg>