<svg xmlns="http://www.w3.org/2000/svg" xmlns:xlink="http://www.w3.org/1999/xlink" version="1.1" width="256" height="256" viewBox="0 0 256 256" xml:space="preserve">

<defs>
</defs>
<g style="stroke: none; stroke-width: 0; stroke-dasharray: none; stroke-linecap: butt; stroke-linejoin: miter; stroke-miterlimit: 10; fill: none; fill-rule: nonzero; opacity: 1;" transform="translate(1.4065934065934016 1.4065934065934016) scale(2.81 2.81)" >
	<path d="M 56.254 85.849 l -7.309 -5.268 V 48.378 c 9.106 -3.38 15.642 -18.103 15.642 -35.503 c 0 -3.373 -0.25 -6.718 -0.742 -9.943 C 63.586 1.233 61.823 0 59.654 0 H 30.345 c -2.168 0 -3.931 1.233 -4.19 2.932 c -0.492 3.223 -0.741 6.568 -0.741 9.943 c 0 17.401 6.536 32.124 15.642 35.503 v 32.203 l -7.308 5.268 c -0.826 0.595 -1.162 1.511 -0.878 2.392 c 0.34 1.053 1.468 1.76 2.808 1.76 h 18.647 c 1.34 0 2.469 -0.707 2.808 -1.76 C 57.415 87.359 57.079 86.443 56.254 85.849 z M 28.132 3.233 C 28.223 2.64 29.095 2 30.345 2 h 29.309 c 1.251 0 2.123 0.64 2.214 1.233 c 0.477 3.125 0.719 6.369 0.719 9.641 c 0 0.133 -0.004 0.265 -0.005 0.397 H 27.418 c -0.001 -0.133 -0.005 -0.264 -0.005 -0.397 C 27.414 9.6 27.655 6.356 28.132 3.233 z M 54.323 88 H 35.676 c -0.64 0 -0.898 -0.304 -0.906 -0.376 c 0.003 -0.015 0.039 -0.075 0.146 -0.152 l 8.139 -5.867 V 46.917 l -0.711 -0.214 c -8.102 -2.446 -14.303 -15.741 -14.882 -31.431 h 35.076 c -0.579 15.69 -6.78 28.985 -14.882 31.431 l -0.711 0.214 v 34.688 l 8.139 5.867 c 0.107 0.077 0.143 0.137 0.146 0.146 C 55.222 87.696 54.964 88 54.323 88 z" style="stroke: none; stroke-width: 1; stroke-dasharray: none; stroke-linecap: butt; stroke-linejoin: miter; stroke-miterlimit: 10; fill: rgb(0,0,0); fill-rule: nonzero; opacity: 1;" transform=" matrix(1 0 0 1 0 0) " stroke-linecap="round" />
</g>
</svg>